<?xml version="1.0" encoding="UTF-8"?>
<svg width="18px" height="15px" viewBox="0 0 18 15" version="1.1" xmlns="http://www.w3.org/2000/svg" xmlns:xlink="http://www.w3.org/1999/xlink">
    <!-- Generator: Sketch 51.2 (57519) - http://www.bohemiancoding.com/sketch -->
    <title>note - grey</title>
    <desc>Created with Sketch.</desc>
    <defs>
        <path d="M17.2,15 L0.8,15 C0.3581722,15 -1.42108547e-14,14.6418278 -1.42108547e-14,14.2 L-1.77635684e-14,0.8 C-1.42108547e-14,0.3581722 0.3581722,-1.95399252e-14 0.8,-1.95399252e-14 L12.6686292,1.77635684e-15 C12.8808023,1.77635684e-15 13.0842855,0.0842854723 13.2343146,0.234314575 L17.7656854,4.76568542 C17.9157145,4.91571453 18,5.11919766 18,5.33137085 L18,14.2 C18,14.6418278 17.6418278,15 17.2,15 Z" id="path-1"></path>
    </defs>
    <g id="icon-export" stroke="none" stroke-width="1" fill="none" fill-rule="evenodd">
        <g id="Artboard" transform="translate(-262.000000, -186.000000)">
            <g id="tray---note-unselected" transform="translate(262.000000, 186.000000)">
                <g id="note---white---small-copy-6">
                    <mask id="mask-2" fill="white">
                        <use xlink:href="#path-1"></use>
                    </mask>
                    <path stroke="#AAAAAA" stroke-width="1.4" d="M17.2,14.3 C17.2552285,14.3 17.3,14.2552285 17.3,14.2 L17.3,5.33137085 C17.3,5.3048492 17.2894643,5.27941381 17.2707107,5.26066017 L12.7393398,0.729289322 C12.7205862,0.710535684 12.6951508,0.7 12.6686292,0.7 L0.8,0.7 C0.744771525,0.7 0.7,0.744771525 0.7,0.8 L0.7,14.2 C0.7,14.2552285 0.744771525,14.3 0.8,14.3 L17.2,14.3 Z"></path>
                    <polygon id="Path-4" stroke="#AAAAAA" stroke-width="1.4" mask="url(#mask-2)" points="12.5 0.5 17.5 5.5 12.5 5.5"></polygon>
                </g>
            </g>
        </g>
    </g>
</svg>