<?xml version="1.0" encoding="UTF-8"?>
<svg width="19px" height="15px" viewBox="0 0 19 15" version="1.1" xmlns="http://www.w3.org/2000/svg" xmlns:xlink="http://www.w3.org/1999/xlink">
    <!-- Generator: Sketch 51.1 (57501) - http://www.bohemiancoding.com/sketch -->
    <title>note - white</title>
    <desc>Created with Sketch.</desc>
    <defs>
        <path d="M0.8,1.42108547e-14 L18.2,1.40998324e-14 C18.6418278,1.401867e-14 19,0.3581722 19,0.8 L19,14.2 C19,14.6418278 18.6418278,15 18.2,15 L5.53242619,15 C5.31117951,15 5.09981166,14.9083747 4.94856134,14.746902 L0.216135152,9.69463105 C0.0772704704,9.54638109 1.91920339e-15,9.35085816 1.44328993e-15,9.14772901 L0,0.8 C-5.41083001e-17,0.3581722 0.3581722,1.39589503e-14 0.8,1.38777878e-14 Z" id="path-1"></path>
    </defs>
    <g id="icon-export" stroke="none" stroke-width="1" fill="none" fill-rule="evenodd">
        <g id="Artboard" transform="translate(-225.000000, -183.000000)">
            <g id="note---white" transform="translate(225.000000, 183.000000)">
                <mask id="mask-2" fill="white">
                    <use xlink:href="#path-1"></use>
                </mask>
                <path stroke="#FFFFFF" stroke-width="1.4" d="M0.8,0.7 C0.744771525,0.7 0.7,0.744771525 0.7,0.8 L0.7,9.14772901 C0.7,9.17312016 0.709658809,9.19756052 0.727016894,9.21609177 L5.45944308,14.2683628 C5.47834937,14.2885468 5.50477035,14.3 5.53242619,14.3 L18.2,14.3 C18.2552285,14.3 18.3,14.2552285 18.3,14.2 L18.3,0.8 C18.3,0.744771525 18.2552285,0.7 18.2,0.7 L0.8,0.7 Z"></path>
                <polygon id="Path-4" stroke="#FFFFFF" stroke-width="1.4" mask="url(#mask-2)" points="13 0 19 6 13 6"></polygon>
            </g>
        </g>
    </g>
</svg>