<?xml version="1.0" encoding="UTF-8"?>
<svg width="15px" height="15px" viewBox="0 0 15 15" version="1.1" xmlns="http://www.w3.org/2000/svg" xmlns:xlink="http://www.w3.org/1999/xlink">
    <!-- Generator: Sketch 51.1 (57501) - http://www.bohemiancoding.com/sketch -->
    <title>search</title>
    <desc>Created with Sketch.</desc>
    <defs></defs>
    <g id="icon-export" stroke="none" stroke-width="1" fill="none" fill-rule="evenodd">
        <g id="Artboard" transform="translate(-119.000000, -248.000000)" fill="#3F3F3F">
            <g id="search" transform="translate(119.000000, 248.000000)">
                <path d="M10.7215139,5.5665771 L10.0405923,5.5665771 L9.80389915,5.80155509 C10.6400435,6.77662798 11.1485907,8.04070665 11.1485907,9.42570465 C11.1485907,12.5044309 8.65302155,15 5.57429535,15 C2.49556915,15 0,12.5044309 0,9.42570465 C0,6.34697845 2.49556915,3.8514093 5.57429535,3.8514093 C6.95929335,3.8514093 8.22251444,4.35909897 9.19758733,5.19438568 L9.43428049,4.9594077 L9.43428049,4.28020125 L13.7204848,0 L14.9991424,1.2786576 L10.7215139,5.5665771 L10.7215139,5.5665771 Z M5.57429535,5.5665771 C3.44234178,5.5665771 1.7151678,7.29375107 1.7151678,9.42570465 C1.7151678,11.5568006 3.44234178,13.2848322 5.57429535,13.2848322 C7.70539134,13.2848322 9.4334229,11.5568006 9.4334229,9.42570465 C9.4334229,7.29375107 7.70539134,5.5665771 5.57429535,5.5665771 L5.57429535,5.5665771 Z" id="Shape" transform="translate(7.499571, 7.500000) scale(1, -1) translate(-7.499571, -7.500000) "></path>
            </g>
        </g>
    </g>
</svg>