<?xml version="1.0" encoding="UTF-8"?>
<svg width="11px" height="12px" viewBox="0 0 11 12" version="1.1" xmlns="http://www.w3.org/2000/svg" xmlns:xlink="http://www.w3.org/1999/xlink">
    <!-- Generator: Sketch 51.1 (57501) - http://www.bohemiancoding.com/sketch -->
    <title>trash</title>
    <desc>Created with Sketch.</desc>
    <defs></defs>
    <g id="icon-export" stroke="none" stroke-width="1" fill="none" fill-rule="evenodd">
        <g id="Artboard" transform="translate(-268.000000, -220.000000)" fill="#970909" fill-rule="nonzero">
            <g id="trash" transform="translate(268.000000, 220.000000)">
                <path d="M9.9225,1.81125 L7.599375,1.81125 L7.599375,1.18125 C7.599375,0.52983 7.069545,0 6.418125,0 L3.898125,0 C3.246705,0 2.716875,0.52983 2.716875,1.18125 L2.716875,1.81125 L0.39375,1.81125 C0.1762425,1.81125 0,1.9874925 0,2.205 C0,2.4225075 0.1762425,2.59875 0.39375,2.59875 L1.378125,2.59875 L1.378125,10.355625 C1.378125,11.007045 1.907955,11.536875 2.559375,11.536875 L7.756875,11.536875 C8.408295,11.536875 8.938125,11.007045 8.938125,10.355625 L8.938125,2.59875 L9.9225,2.59875 C10.1400075,2.59875 10.31625,2.4225075 10.31625,2.205 C10.31625,1.9874925 10.1400075,1.81125 9.9225,1.81125 Z M3.504375,1.18125 C3.504375,0.9640575 3.6809325,0.7875 3.898125,0.7875 L6.418125,0.7875 C6.6353175,0.7875 6.811875,0.9640575 6.811875,1.18125 L6.811875,1.81125 L3.504375,1.81125 L3.504375,1.18125 Z M8.150625,10.355625 C8.150625,10.5728175 7.9740675,10.749375 7.756875,10.749375 L2.559375,10.749375 C2.3421825,10.749375 2.165625,10.5728175 2.165625,10.355625 L2.165625,2.59875 L8.150625,2.59875 L8.150625,10.355625 Z" id="Shape"></path>
            </g>
        </g>
    </g>
</svg>