<?xml version="1.0" encoding="UTF-8"?>
<svg width="16px" height="15px" viewBox="0 0 16 15" version="1.1" xmlns="http://www.w3.org/2000/svg" xmlns:xlink="http://www.w3.org/1999/xlink">
    <!-- Generator: Sketch 51.1 (57501) - http://www.bohemiancoding.com/sketch -->
    <title>tray - shortcuts selected</title>
    <desc>Created with Sketch.</desc>
    <defs></defs>
    <g id="icon-export" stroke="none" stroke-width="1" fill="none" fill-rule="evenodd">
        <g id="Artboard" transform="translate(-115.000000, -183.000000)" fill="#AAAAAA">
            <g id="tray---shortcuts-selected" transform="translate(115.000000, 183.000000)">
                <path d="M15.0893226,6.44542531 C15.0893226,7.28332013 14.957488,8.04942575 14.6938148,8.74376516 C14.4301416,9.43810457 14.0595398,9.9786265 13.5819984,10.3653472 C13.1044569,10.7520679 12.5522163,10.9454253 11.9252601,10.9454253 C11.4623671,10.9454253 11.061004,10.8223797 10.7211585,10.5762847 C10.3813131,10.3301897 10.1527997,9.99620867 10.0356116,9.57433156 L9.93014289,9.57433156 C9.64303208,10.0313651 9.28854343,10.3741351 8.86666632,10.6026519 C8.44478921,10.8311686 7.97018459,10.9454253 7.4428382,10.9454253 C6.4877553,10.9454253 5.73629797,10.6378112 5.18844367,10.0225737 C4.64058937,9.4073363 4.36666632,8.57531337 4.36666632,7.52648 C4.36666632,6.31944271 4.72994394,5.33947205 5.45651007,4.58653859 C6.18307621,3.83360514 7.15865239,3.45714406 8.38326789,3.45714406 C8.82858261,3.45714406 9.32223002,3.49669445 9.86422492,3.57579641 C10.4062198,3.65489836 10.8881486,3.76476055 11.3100257,3.90538625 L11.1166663,7.99230031 L11.1166663,8.20323781 C11.1166663,9.1407425 11.4213508,9.60948781 12.0307288,9.60948781 C12.4936218,9.60948781 12.8612939,9.31066268 13.1337562,8.71300344 C13.4062185,8.1153442 13.5424476,7.35363307 13.5424476,6.42784719 C13.5424476,5.42588905 13.3373715,4.54552676 12.9272132,3.78673391 C12.5170549,3.02794105 11.9340529,2.44347424 11.1781898,2.03331594 C10.4223266,1.62315764 9.55514778,1.41808156 8.57662726,1.41808156 C7.32857415,1.41808156 6.24313578,1.67589148 5.32027961,2.19151906 C4.39742343,2.70714664 3.69284063,3.44395568 3.20651007,4.40196828 C2.72017952,5.35998088 2.47701789,6.47178617 2.47701789,7.7374175 C2.47701789,9.43664475 2.93111491,10.7432723 3.83932257,11.6573394 C4.74753024,12.5714064 6.05122814,13.0284331 7.75045539,13.0284331 C9.04538374,13.0284331 10.3959562,12.7647639 11.8022132,12.2374175 L11.8022132,13.6788237 C10.5717383,14.1827325 9.2328845,14.4346831 7.78561164,14.4346831 C5.61763205,14.4346831 3.92721926,13.8502163 2.71432257,12.6812652 C1.50142588,11.512314 0.894986636,9.88195921 0.894986636,7.79015188 C0.894986636,6.26084735 1.22310836,4.90002112 1.87936164,3.70763234 C2.53561492,2.51524357 3.44527379,1.60265504 4.60836554,0.969839375 C5.7714573,0.337023711 7.08833866,0.020620625 8.55904914,0.020620625 C9.83053987,0.020620625 10.9628528,0.284289863 11.9560218,0.81163625 C12.9491908,1.33898264 13.7196909,2.09043997 14.2675452,3.06603078 C14.8153995,4.0416216 15.0893226,5.16807518 15.0893226,6.44542531 Z M6.05416632,7.56163625 C6.05416632,8.92687745 6.59029378,9.60948781 7.66256476,9.60948781 C8.79342979,9.60948781 9.41158767,8.75109796 9.51705695,7.0342925 L9.6225257,4.93370656 C9.25338323,4.83409669 8.85787937,4.7842925 8.43600226,4.7842925 C7.68599851,4.7842925 7.1015317,5.03331345 6.68258429,5.53136281 C6.26363689,6.02941218 6.05416632,6.70616322 6.05416632,7.56163625 Z" id="@-copy-7"></path>
            </g>
        </g>
    </g>
</svg>